<?xml version="1.0" standalone="no"?>
<!DOCTYPE svg PUBLIC "-//W3C//DTD SVG 20010904//EN"
 "http://www.w3.org/TR/2001/REC-SVG-20010904/DTD/svg10.dtd">
<svg version="1.0" xmlns="http://www.w3.org/2000/svg"
 width="272.000000pt" height="275.000000pt" viewBox="0 0 272.000000 275.000000"
 preserveAspectRatio="xMidYMid meet">

<g transform="translate(0.000000,275.000000) scale(0.100000,-0.100000)"
fill="#000000" stroke="none">
<path d="M1309 2511 c-47 -9 -77 -29 -190 -125 -107 -89 -98 -82 -399 -331
-124 -103 -247 -206 -275 -229 -27 -24 -120 -100 -205 -170 -203 -168 -220
-187 -220 -245 0 -63 27 -104 83 -126 36 -13 52 -15 84 -6 23 6 46 18 53 26 7
8 16 15 21 15 5 0 9 -216 9 -490 0 -419 2 -495 15 -520 33 -63 -23 -60 1062
-60 973 0 988 0 1021 20 62 38 62 39 62 570 0 448 3 505 26 469 13 -22 74 -40
110 -33 45 8 101 63 109 107 9 49 -19 111 -69 149 -22 18 -84 68 -136 112 -52
43 -142 117 -199 165 -57 47 -138 115 -181 151 -42 36 -98 83 -125 105 -27 22
-81 67 -120 100 -237 199 -390 321 -413 331 -41 18 -83 23 -123 15z m99 -328
c32 -27 101 -83 153 -127 52 -43 112 -93 134 -111 22 -18 69 -57 105 -86 36
-29 70 -58 76 -64 6 -5 32 -28 59 -50 27 -22 67 -56 90 -75 23 -19 65 -53 93
-75 l51 -40 1 -522 0 -523 -265 0 -265 0 0 306 0 306 -29 29 -29 29 -227 0
c-229 0 -255 -4 -282 -39 -9 -12 -12 -98 -13 -323 l0 -308 -267 0 -268 0 2
197 c1 109 3 344 3 523 l0 325 122 100 c114 94 179 149 238 199 14 11 45 37
70 56 25 19 47 37 50 40 5 6 244 207 270 227 8 7 26 21 40 32 14 11 26 20 27
21 2 0 29 -21 61 -47z"/>
</g>
</svg>
