<?xml version="1.0" standalone="no"?>
<!DOCTYPE svg PUBLIC "-//W3C//DTD SVG 20010904//EN"
 "http://www.w3.org/TR/2001/REC-SVG-20010904/DTD/svg10.dtd">
<svg version="1.0" xmlns="http://www.w3.org/2000/svg"
 width="275.000000pt" height="275.000000pt" viewBox="0 0 275.000000 275.000000"
 preserveAspectRatio="xMidYMid meet">

<g transform="translate(0.000000,275.000000) scale(0.100000,-0.100000)"
fill="#000000" stroke="none">
<path d="M461 2491 c-17 -16 -35 -41 -41 -55 -6 -18 -10 -376 -10 -1039 0
-944 1 -1014 18 -1046 9 -19 30 -44 45 -55 28 -21 36 -21 924 -23 868 -3 897
-2 940 17 35 15 48 28 64 64 19 43 19 69 19 765 0 397 -4 731 -9 744 -8 20
-609 627 -642 648 -8 5 -298 9 -645 9 l-632 0 -31 -29z m1159 -398 c0 -357
-15 -343 358 -343 l252 0 0 -640 0 -640 -815 0 -815 0 0 923 c0 508 3 927 7
930 3 4 233 7 510 7 l503 0 0 -237z"/>
<path d="M832 1548 c-14 -14 -16 -86 -3 -107 7 -12 102 -14 581 -13 412 1 576
5 586 13 16 13 18 72 4 100 -10 18 -27 19 -583 19 -432 0 -576 -3 -585 -12z"/>
<path d="M836 1184 c-19 -18 -22 -94 -4 -112 17 -17 1149 -17 1166 0 7 7 12
31 12 53 0 79 35 75 -598 75 -496 0 -562 -2 -576 -16z"/>
<path d="M832 818 c-7 -7 -12 -33 -12 -60 0 -37 4 -50 19 -58 13 -6 149 -10
374 -10 342 0 355 1 372 20 16 17 17 28 9 68 l-9 47 -370 3 c-280 2 -374 -1
-383 -10z"/>
</g>
</svg>
