<?xml version="1.0" standalone="no"?>
<!DOCTYPE svg PUBLIC "-//W3C//DTD SVG 20010904//EN"
 "http://www.w3.org/TR/2001/REC-SVG-20010904/DTD/svg10.dtd">
<svg version="1.0" xmlns="http://www.w3.org/2000/svg"
 width="275.000000pt" height="275.000000pt" viewBox="0 0 275.000000 275.000000"
 preserveAspectRatio="xMidYMid meet">

<g transform="translate(0.000000,275.000000) scale(0.100000,-0.100000)"
fill="#000000" stroke="none">
<path d="M1214 2488 c-43 -20 -44 -41 -44 -466 l1 -407 -461 -5 c-489 -5 -464
-3 -488 -50 -5 -8 -6 -79 -3 -157 5 -119 9 -145 24 -160 16 -17 52 -18 472
-21 l454 -3 3 -444 3 -444 23 -23 c21 -22 30 -23 168 -23 l146 0 24 28 24 28
0 440 0 439 444 0 444 0 31 26 31 26 0 144 c0 140 -1 146 -25 169 l-24 25
-451 0 -450 0 0 410 c0 432 -2 457 -45 474 -27 10 -278 5 -301 -6z"/>
</g>
</svg>
