<?xml version="1.0" standalone="no"?>
<!DOCTYPE svg PUBLIC "-//W3C//DTD SVG 20010904//EN"
 "http://www.w3.org/TR/2001/REC-SVG-20010904/DTD/svg10.dtd">
<svg version="1.0" xmlns="http://www.w3.org/2000/svg"
 width="500.000000pt" height="500.000000pt" viewBox="0 0 500.000000 500.000000"
 preserveAspectRatio="xMidYMid meet">

<g transform="translate(0.000000,500.000000) scale(0.100000,-0.100000)"
fill="#000000" stroke="none">
<path d="M2326 4803 l-147 -138 0 -1222 1 -1223 -229 0 c-126 0 -236 -3 -245
-6 -21 -8 -21 -58 1 -75 19 -16 230 -275 537 -656 131 -164 225 -273 235 -273
10 0 24 6 33 13 8 6 116 138 239 292 123 154 290 362 371 462 148 181 171 222
132 237 -9 3 -117 6 -240 6 l-224 0 0 1224 0 1223 -149 137 c-82 75 -153 136
-158 136 -5 0 -75 -62 -157 -137z"/>
<path d="M1610 4541 c-333 -132 -603 -312 -845 -562 -334 -346 -542 -752 -630
-1234 -26 -139 -32 -508 -10 -660 73 -527 303 -980 693 -1362 356 -350 823
-578 1347 -659 133 -20 445 -23 585 -5 392 50 749 182 1065 393 124 84 212
155 339 278 359 347 595 794 683 1295 25 145 25 559 -1 700 -43 243 -104 431
-205 641 -220 454 -563 811 -1016 1056 -169 91 -368 170 -385 152 -13 -14 -46
-123 -66 -216 -24 -112 -26 -367 -4 -379 8 -5 49 -24 90 -43 161 -75 347 -205
475 -332 257 -258 418 -556 486 -905 30 -152 33 -443 5 -594 -67 -370 -234
-677 -512 -945 -218 -209 -474 -353 -769 -431 -674 -178 -1397 57 -1824 591
-343 428 -464 958 -337 1464 82 326 222 571 461 811 142 143 254 224 442 321
l138 72 3 135 c2 107 -2 158 -18 239 -25 120 -59 212 -80 215 -8 1 -58 -15
-110 -36z"/>
</g>
</svg>
